<?xml version="1.0" encoding="utf-8"?>
<!-- Generator: Adobe Illustrator 26.1.0, SVG Export Plug-In . SVG Version: 6.00 Build 0)  -->
<svg version="1.1" id="Layer_1" xmlns="http://www.w3.org/2000/svg" xmlns:xlink="http://www.w3.org/1999/xlink" x="0px" y="0px"
	 viewBox="0 0 500 500" style="enable-background:new 0 0 500 500;" xml:space="preserve">
<style type="text/css">
	.st0{fill:#D6D6D6;}
</style>
<g>
	<path class="st0" d="M156.47,271.54c-2.78-4.37-5.59-8.73-7.91-13.37c-1.69-3.37-3.31-6.79-4.59-10.35
		c-0.98-2.74-1.96-5.49-2.85-8.26c-0.56-1.74-0.98-3.53-1.42-5.31c-0.36-1.47-0.7-2.94-0.96-4.43c-0.5-2.92-0.92-5.86-1.4-8.78
		c-0.47-2.84-0.3-5.71-0.33-8.56c-0.02-1.46,0.03-2.92,0-4.37c-0.05-2.06,0.26-4.09,0.55-6.12c0.26-1.82,0.51-3.63,0.79-5.44
		c0.08-0.53,0.21-1.06,0.36-1.58c0.05-0.18,0.23-0.33,0.46-0.63c0.2,0.41,0.38,0.66,0.45,0.94c0.31,1.31,0.6,2.63,0.86,3.95
		c0.68,3.45,1.69,6.81,2.83,10.13c1.47,4.28,3.06,8.53,5.04,12.61c1.27,2.63,2.64,5.2,4.17,7.68c1.55,2.52,3.22,4.97,5.12,7.27
		c2.21,2.68,4.66,5.11,7.21,7.43c2.39,2.18,5.09,3.98,8,5.46c1.88,0.95,3.79,1.84,5.78,2.52c0.15,0.05,0.3,0.13,0.45,0.18
		c0.71,0.24,1.21,0.19,1.31-0.15c0.16-0.53-0.31-0.75-0.57-1.07c-1.27-1.54-2.61-3.03-3.81-4.62c-1.95-2.58-3.92-5.16-5.7-7.86
		c-1.6-2.43-3.2-4.86-4.62-7.41c-1.21-2.16-2.46-4.31-3.6-6.51c-1.11-2.15-2.28-4.28-3.17-6.55c-0.87-2.21-1.88-4.35-2.74-6.56
		c-0.78-2.01-1.52-4.04-2.13-6.11c-0.83-2.79-1.6-5.6-2.26-8.44c-0.49-2.1-0.77-4.25-1.13-6.37c-0.12-0.69-0.21-1.39-0.31-2.08
		c-0.21-1.55-0.26-3.12-0.42-4.67c-0.21-2.1-0.18-4.2-0.29-6.3c-0.09-1.67-0.33-3.32-0.5-4.98c-0.06-0.59-0.11-1.18-0.11-1.77
		c-0.02-1.51-0.03-3.02,0-4.53c0.02-0.81,0.12-1.61,0.19-2.42c0.01-0.16,0.06-0.32,0.07-0.48c0.13-2.04,0.23-4.09,0.39-6.13
		c0.11-1.45,0.24-2.9,0.45-4.34c0.39-2.61,0.87-5.21,1.29-7.83c0.82-5.12,2.16-10.13,3.48-15.13c0.77-2.92,1.64-5.82,2.59-8.68
		c1.06-3.17,2.26-6.3,3.42-9.43c0.62-1.67,1.25-3.33,1.95-4.97c1.16-2.73,2.36-5.44,3.56-8.16c0.55-1.23,1.13-2.45,1.68-3.68
		c0.3-0.67,0.28-0.67,1.03-1.12c0.08,0.07,0.22,0.13,0.22,0.2c0.16,1.82,0.48,3.63,0.43,5.48c-0.03,1.02,0.14,2.04,0.22,3.06
		c0.13,1.56,0.24,3.12,0.4,4.67c0.24,2.41,0.48,4.83,0.77,7.23c0.37,3.05,0.77,6.1,1.22,9.14c0.34,2.29,0.72,4.59,1.16,6.86
		c0.68,3.49,1.42,6.98,2.14,10.46c0.08,0.37,0.16,0.74,0.26,1.1c1.08,4.07,2.15,8.13,3.39,12.16c0.7,2.27,1.52,4.5,2.28,6.74
		c0.64,1.89,1.48,3.7,2.24,5.55c1.39,3.4,2.97,6.7,4.82,9.88c1.98,3.41,4.17,6.67,6.64,9.75c1.12,1.4,2.36,2.67,3.62,3.93
		c1.07,1.07,2.14,2.13,3.18,3.21c1.63,1.7,3.64,2.88,5.63,4.07c3.34,2,6.81,3.75,10.44,5.17c2.76,1.09,5.52,2.19,8.31,3.18
		c2.44,0.86,4.93,1.61,7.42,2.33c3.32,0.95,6.66,1.84,10,2.73c1.3,0.35,2.63,0.61,3.94,0.94c2.2,0.56,4.32,1.32,6.37,2.32
		c2.68,1.31,5.21,2.84,7.55,4.68c0.21,0.17,0.45,0.31,0.64,0.49c2.25,2.25,4.69,4.32,6.46,7.01c1.63,2.48,3.15,5.03,4.1,7.87
		c0.31,0.92,0.65,1.83,0.91,2.77c0.42,1.51,0.66,3.06,0.59,4.64c-0.01,0.22,0.02,0.43,0,0.65c-0.19,1.62,0.65,2.67,1.92,3.46
		c1.93,1.19,3.91,2.25,6.05,3.07c2.03,0.78,4.11,1.32,6.18,1.93c1.29,0.37,2.64,0.56,3.95,0.87c4.2,0.99,8.41,1.99,12.6,3
		c0.58,0.14,1.14,0.34,1.7,0.53c0.64,0.21,0.94,0.68,0.98,1.34c0.07,1.2,0.04,2.39-0.48,3.49c-0.83,1.75-1.67,3.5-2.54,5.24
		c-0.48,0.96-1.03,1.9-1.56,2.84c-1.21,2.17-1.61,5.59,1.05,8.38c1.14,1.19,2.36,2.16,3.95,2.72c1.96,0.7,2.21,1.4,1.35,3.34
		c-0.64,1.44-1.61,2.68-2.64,3.85c-0.36,0.41-0.78,0.76-1.09,1.19c-0.24,0.34-0.41,0.76-0.51,1.16c-0.11,0.44,0.19,0.89,0.62,1
		c0.31,0.08,0.64,0.11,0.96,0.13c0.48,0.04,0.97,0.04,1.45,0.1c1.73,0.21,2.9,1.08,3.34,2.82c-0.1,1.49-0.55,2.84-1.48,4.04
		c-0.47,0.59-0.88,1.23-1.26,1.88c-0.96,1.65-0.63,3.11,0.92,4.21c0.66,0.47,1.29,1,2.01,1.37c1.31,0.68,2.41,1.64,3.51,2.58
		c0.97,0.83,1.52,1.86,1.52,3.25c-0.01,1.85-0.16,3.67-0.49,5.47c-0.53,2.92-1.41,5.77-2.34,8.58c-1.26,3.84-2.8,7.58-4.53,11.24
		c-1.08,2.29-2.33,4.5-3.42,6.79c-1.92,4.05-4.29,7.86-6.51,11.74c-1.1,1.92-2.37,3.74-3.49,5.64c-1.7,2.89-3.59,5.64-5.8,8.17
		c-1.46,1.66-2.86,3.37-4.32,5.03c-1.64,1.86-3.22,3.78-4.98,5.52c-3.24,3.24-6.32,6.65-9.87,9.58c-0.91,0.76-1.77,1.57-2.69,2.33
		c-2.42,1.99-4.88,3.92-7.53,5.6c-1.23,0.78-2.43,1.61-3.63,2.43c-2.23,1.51-4.46,3.03-6.7,4.55c-0.18,0.12-0.37,0.22-0.56,0.32
		c-1.76,0.95-3.52,1.89-5.28,2.83c-0.42,0.23-0.84,0.62-1.34,0.28c-0.58-0.4-0.33-0.97-0.15-1.47c0.67-1.9,1.62-3.64,2.9-5.21
		c1.84-2.26,3.65-4.53,4.91-7.19c1.07-2.24,2.22-4.46,2.63-6.93c0.35-2.17,0.85-4.35,0.31-6.57c-0.08-0.31,0.01-0.66-0.06-0.97
		c-0.38-1.68-0.66-3.4-1.24-5.01c-0.47-1.3-1.29-2.49-2.32-3.48c-0.81-0.79-1.57-1.64-2.42-2.39c-0.8-0.72-1.63-1.43-2.55-1.99
		c-3.03-1.87-6.09-3.7-9.49-4.86c-1.78-0.61-3.53-1.35-5.33-1.9c-2.48-0.75-4.98-1.4-7.49-2.05c-2.14-0.55-4.3-1.04-6.45-1.56
		c-4.25-1.03-8.55-1.8-12.71-3.21c-2.2-0.74-4.38-1.54-6.48-2.52c-3.78-1.76-7.28-4-10.66-6.43c-2.54-1.83-4.91-3.88-7.23-5.97
		c-3.05-2.75-5.75-5.84-8.54-8.85c-0.04-0.04-0.07-0.08-0.1-0.12c-1.4-1.71-2.84-3.39-4.2-5.13c-1.59-2.04-3.13-4.12-4.68-6.2
		c-0.9-1.21-1.78-2.44-2.63-3.69c-1.19-1.74-2.41-3.45-3.5-5.25c-1.39-2.31-2.7-4.67-3.98-7.04c-1.05-1.94-2.1-3.9-2.99-5.92
		c-1.13-2.56-2.15-5.18-3.11-7.81c-0.65-1.77-1.22-3.58-1.66-5.41c-0.45-1.89-0.74-3.81-1.02-5.73c-0.12-0.79-0.05-1.61-0.02-2.42
		c0.01-0.18,0.17-0.44,0.32-0.49c0.15-0.05,0.44,0.05,0.56,0.18c0.69,0.75,1.35,1.54,2.03,2.31c1.35,1.54,2.62,3.16,4.06,4.61
		c4.61,4.62,9.06,9.41,14.14,13.54c2.18,1.77,4.3,3.6,6.53,5.31c3.08,2.37,6.33,4.5,9.65,6.53c1.56,0.96,3.15,1.89,4.81,2.68
		c2.82,1.36,5.7,2.59,8.67,3.59c0.66,0.22,1.31,0.52,1.99,0.67c2.42,0.54,4.85,1.08,7.29,1.5c1.1,0.19,2.26,0.1,3.39,0.11
		c0.33,0,0.65-0.13,0.57-0.66c-0.74-0.47-1.59-0.83-2.49-0.97c-1.4-0.21-2.69-0.76-4.01-1.21c-4.01-1.38-7.66-3.47-11.15-5.83
		c-2.19-1.48-4.33-3.05-6.38-4.7c-2.14-1.72-4.23-3.52-6.19-5.44c-2.73-2.68-5.54-5.3-8.01-8.24c-1.28-1.52-2.8-2.84-4.07-4.39
		c-2.22-2.71-4.45-5.41-6.49-8.27C157.85,273.05,157.36,272.12,156.47,271.54z"/>
	<path class="st0" d="M355.76,102.31c-0.26,0.43-0.42,0.75-0.64,1.04c-1.46,1.87-2.95,3.72-4.38,5.61c-2.83,3.76-5.33,7.72-7.32,12
		c-0.84,1.81-1.86,3.54-2.61,5.38c-1.76,4.35-3.3,8.79-4.33,13.38c-0.63,2.84-1.19,5.7-1.41,8.62c-0.17,2.26-0.42,4.51-0.57,6.76
		c-0.07,1.02,0.01,2.05,0.06,3.07c0.04,0.91,0.16,1.82,0.21,2.74c0.14,2.8,0.44,5.59,1,8.34c0.26,1.27,0.53,2.54,0.79,3.8
		c0.69,3.34,1.76,6.57,2.88,9.77c0.57,1.63,1.33,3.19,1.97,4.79c1.26,3.17,2.97,6.12,4.59,9.1c0.95,1.75,2.07,3.41,3.12,5.12
		c1.41,2.3,2.89,4.56,4.2,6.91c1.18,2.12,2.19,4.33,3.22,6.52c0.6,1.27,1.09,2.58,1.63,3.88c1.19,2.85,2.05,5.8,2.74,8.8
		c0.36,1.58,0.74,3.15,1.07,4.73c0.83,3.91,1.32,7.87,1.89,11.82c0.08,0.53,0.08,1.08,0.08,1.62c0.01,7.13,0.02,14.25-0.01,21.38
		c0,1.02-0.18,2.04-0.3,3.05c-0.61,5.15-1.49,10.26-2.73,15.29c-1.22,4.93-2.69,9.78-4.54,14.51c-0.91,2.31-1.83,4.62-2.77,6.91
		c-0.39,0.95-0.83,1.87-1.31,2.78c-1.55,2.96-3.12,5.92-4.7,8.87c-0.86,1.62-1.72,3.24-2.63,4.83c-1.21,2.11-2.44,4.2-3.71,6.27
		c-1.7,2.76-3.44,5.49-5.18,8.21c-0.67,1.04-1.4,2.05-2.12,3.06c-3.06,4.32-6.17,8.59-9.57,12.65c-2.36,2.82-4.93,5.45-7.61,7.95
		c-2.14,1.99-4.5,3.7-7.05,5.14c-0.19,0.1-0.39,0.23-0.59,0.25c-0.19,0.02-0.42-0.05-0.58-0.16c-0.09-0.06-0.07-0.29-0.07-0.44
		c0-0.1,0.06-0.21,0.12-0.3c2.37-3.93,4.34-8.08,6.4-12.17c1.58-3.13,2.96-6.35,4.39-9.56c1.36-3.06,2.72-6.11,3.97-9.22
		c1.02-2.55,1.9-5.16,2.81-7.76c0.72-2.04,1.42-4.08,2.07-6.13c0.5-1.59,0.93-3.21,1.35-4.82c0.5-1.93,1.01-3.86,1.41-5.82
		c0.56-2.75,1.05-5.51,1.22-8.32c0.04-0.64,0.2-1.28,0.28-1.92c0.42-3.59,0.72-7.19,0.68-10.81c-0.01-0.91,0.15-1.82,0.19-2.74
		c0.03-0.59,0.02-1.18-0.01-1.77c-0.04-0.75-0.19-1.5-0.18-2.25c0.05-4.06-0.44-8.07-1.11-12.06c-0.59-3.53-1.5-6.96-2.79-10.29
		c-0.89-2.32-2.04-4.5-3.51-6.54c-1.61-2.23-3.27-4.42-4.74-6.76c-1.79-2.83-3.87-5.44-6.28-7.8c-2.97-2.92-6.03-5.73-9.34-8.23
		c-3.14-2.37-6.29-4.74-9.68-6.78c-2.59-1.56-5.11-3.23-7.72-4.74c-2.62-1.51-5.29-2.92-7.98-4.3c-2.31-1.18-4.68-2.23-7.02-3.34
		c-2.75-1.3-5.28-2.88-7.57-4.92c-2.5-2.23-4.4-4.86-6.1-7.69c-1.29-2.14-2.3-4.39-3.04-6.78c-1.01-3.21-1.55-6.49-1.6-9.86
		c-0.07-5.04,0.95-9.85,2.75-14.54c1.95-5.09,4.76-9.66,7.97-14.03c2.5-3.41,5.34-6.51,8.43-9.38c2.33-2.16,4.82-4.16,7.16-6.31
		c1.95-1.79,4.02-3.44,6.11-5.05c2.87-2.2,5.72-4.44,9.01-6c1.01-0.48,2.14-0.73,3.22-1.06c0.32-0.09,0.71-0.04,0.84,0.3
		c0.1,0.27,0.06,0.62,0.03,0.92c-0.02,0.14-0.15,0.28-0.25,0.41c-0.72,1.01-1.45,2.02-2.16,3.03c-2.91,4.11-5.33,8.49-7.54,13
		c-1.14,2.33-2.09,4.74-2.97,7.17c-1.18,3.25-2.02,6.6-2.38,10.05c-0.13,1.29-0.24,2.58-0.3,3.87c-0.02,0.41,0.11,0.84,0.24,1.25
		c0.1,0.32,0.61,0.37,0.8,0.09c0.15-0.22,0.31-0.45,0.39-0.7c1.11-3.68,2.77-7.14,4.37-10.62c0.74-1.62,1.61-3.17,2.43-4.75
		c0.47-0.91,0.94-1.82,1.43-2.72c2.24-4.07,4.7-8,7.48-11.73c1.55-2.07,3.1-4.15,4.72-6.17c1.04-1.3,2.19-2.53,3.33-3.75
		c1.11-1.18,2.3-2.28,3.43-3.45c1.99-2.06,4.25-3.82,6.43-5.68c2.4-2.04,5.06-3.71,7.71-5.35c3.53-2.18,7.21-4.14,11.16-5.51
		c1.78-0.62,3.53-1.36,5.33-1.91c3.25-1,6.57-1.78,9.94-2.25C354.35,102.08,354.95,101.92,355.76,102.31z"/>
</g>
</svg>
